<?xml version="1.0" encoding="UTF-8"?>
<svg id="Layer_2" data-name="Layer 2" xmlns="http://www.w3.org/2000/svg" viewBox="0 0 486.02 113.62">
  <defs>
    <style>
      .cls-1 {
        fill: #f6ca75;
      }

      .cls-1, .cls-2, .cls-3, .cls-4, .cls-5, .cls-6, .cls-7, .cls-8, .cls-9 {
        stroke-width: 0px;
      }

      .cls-10 {
        letter-spacing: -.01em;
      }

      .cls-11 {
        font-size: 47px;
      }

      .cls-12 {
        letter-spacing: 0em;
      }

      .cls-13 {
        letter-spacing: 0em;
      }

      .cls-2 {
        fill: #fffdf8;
      }

      .cls-3 {
        fill: #343493;
        opacity: .5;
      }

      .cls-4, .cls-14 {
        fill: #6562e8;
      }

      .cls-5 {
        fill: #3333a8;
      }

      .cls-6 {
        fill: #eee9ff;
      }

      .cls-7 {
        fill: #e4deff;
      }

      .cls-8 {
        fill: #4646d3;
      }

      .cls-15 {
        letter-spacing: 0em;
      }

      .cls-9 {
        fill: #00387c;
      }

      .cls-16 {
        letter-spacing: 0em;
      }

      .cls-17 {
        font-size: 25.5px;
      }

      .cls-14 {
        font-family: Montserrat-Bold, Montserrat;
        font-weight: 700;
      }
    </style>
  </defs>
  <g id="OBJECT">
    <text class="cls-14" transform="translate(165.3 61.84)"><tspan class="cls-11"><tspan x="0" y="0">DORMI</tspan><tspan class="cls-12" x="173.33" y="0">T</tspan><tspan class="cls-16" x="201.91" y="0">O</tspan><tspan class="cls-15" x="241.58" y="0">R</tspan><tspan x="275.65" y="0">Y </tspan></tspan><tspan class="cls-17"><tspan x="0" y="30.6">MAN</tspan><tspan class="cls-13" x="64.49" y="30.6">A</tspan><tspan x="83.77" y="30.6">GEMENT </tspan><tspan class="cls-10" x="205.58" y="30.6">SY</tspan><tspan class="cls-13" x="238.32" y="30.6">S</tspan><tspan x="254.33" y="30.6">TEM</tspan></tspan></text>
    <g>
      <g>
        <path class="cls-7" d="m137.36,108.73l15.02-7.38-75.75-62.67L.88,101.34l16.67,8.2c4.43-2.45,26.49-15.11,44.76-33.7,0,0-12.87,18.34-43.01,34.56l3.59,1.77c36.56-18.28,51.09-45.03,53.58-50.1,0,.02.01.04.02.06-13.03,30.53-52.08,51.13-52.08,51.13l2.37.36c38.81-20.69,48.12-45.56,49.79-51.23,8.37,29.93,48.43,50.62,48.43,50.62l4.37-.24c-37.56-19.62-49.94-44.22-52.69-50.78,0-.03.02-.07.03-.1,2.25,4.62,16.68,31.78,53.67,50.27l5.25-2.58c-30.35-16.26-43.3-34.72-43.3-34.72,18.71,19.04,41.39,31.85,45.05,33.86Zm-60.75-46.89s0-.02-.01-.03c0-.02.02-.05.03-.06,0,0,0,.02.01.03,0,.02-.02.05-.03.07Z"/>
        <path class="cls-6" d="m13.23,107.18s42.55-27.61,58.1-46.32l-2.46.03S29.27,96.25,10.32,105.48l2.92,1.7Z"/>
        <path class="cls-6" d="m139.57,107.67s-43.15-28.05-58.7-46.76l2.55-.02s40.57,35.51,59.06,45.08l-2.92,1.7Z"/>
      </g>
      <path class="cls-8" d="m3.29,62.36C14.51,53.74,51.65,24.79,74.34,2.1v53.94s-34.07,31.65-61.46,48.17c-5.6,3.38-12.74-.68-12.76-7.21L0,69.08c-.01-2.63,1.21-5.12,3.29-6.72Z"/>
      <path class="cls-4" d="m149.71,62.95c-10.18-7.81-48.57-37.61-71.81-60.85v53.94s36.71,34.09,64.55,49.98c4.3,2.45,9.64-.66,9.66-5.6l.13-32.31c0-2.02-.93-3.93-2.53-5.16Z"/>
      <g>
        <rect class="cls-4" x="120.88" y="15.42" width="10.49" height="8.93"/>
        <rect class="cls-7" x="97.66" y="15.42" width="23.4" height="8.93"/>
      </g>
      <polygon class="cls-2" points="127.36 66.44 101.67 46.76 101.67 24.35 127.36 24.35 127.36 66.44"/>
      <polygon class="cls-1" points="127.36 24.35 120.88 24.35 120.88 61.48 127.36 66.44 127.36 24.35"/>
      <g>
        <rect class="cls-1" x="65.49" y="91.03" width="9.53" height="9.53"/>
        <rect class="cls-1" x="77.2" y="91.03" width="9.53" height="9.53"/>
        <rect class="cls-1" x="65.49" y="102.57" width="9.53" height="9.53"/>
        <rect class="cls-1" x="77.2" y="102.57" width="9.53" height="9.53"/>
      </g>
      <path class="cls-9" d="m140.64,104.97c-.21-.12-.41-.24-.62-.37.21.12.41.24.62.37Z"/>
      <path class="cls-9" d="m142,105.76c-.2-.12-.41-.24-.62-.36.21.12.41.24.62.36Z"/>
      <path class="cls-4" d="m140.02,104.61c-.25-.15-.51-.3-.76-.46.25.15.51.31.76.46Z"/>
      <path class="cls-4" d="m141.38,105.41c-.25-.14-.5-.29-.74-.44.25.15.5.29.74.44Z"/>
      <path class="cls-4" d="m142.45,106.02s.02,0,.03.01c-.16-.09-.32-.18-.48-.27.15.09.3.17.45.26Z"/>
      <path class="cls-3" d="m12.88,104.21c27.39-16.52,61.46-48.17,61.46-48.17v-8.25C53.75,73.66,13.32,99.54,5.09,104.66c2.37,1.08,5.24,1.08,7.79-.45Z"/>
      <path class="cls-3" d="m141.08,105.48c-27.39-16.52-61.46-48.17-61.46-48.17v-8.25c20.58,25.87,61.02,51.75,69.25,56.87-2.37,1.08-5.24,1.08-7.79-.45Z"/>
      <path class="cls-5" d="m69.72,60.05s6.2-5.35,13,.12V5.86c0-2.6-1.74-4.9-4.26-5.55-1.28-.33-2.77-.46-4.39-.11-2.57.56-4.36,2.91-4.37,5.55-.05,12.39-.19,54.29.01,54.29Z"/>
      <path class="cls-2" d="m68.87,60.9l1.67-.16c3.81-.36,7.65-.35,11.46.02l1.43.14s-1.96-3.31-7.34-3.31c-4.66,0-7.22,3.31-7.22,3.31Z"/>
    </g>
  </g>
</svg>